<?xml version="1.0" encoding="UTF-8"?>
<svg xmlns="http://www.w3.org/2000/svg" xmlns:xlink="http://www.w3.org/1999/xlink" viewBox="0 0 50 50" width="50px" height="50px">
<g id="surface1716993">
<path style=" stroke:none;fill-rule:nonzero;fill:rgb(100%,100%,100%);fill-opacity:1;" d="M 37.5 4.167969 L 12.5 4.167969 C 10.199219 4.167969 8.332031 6.03125 8.332031 8.332031 L 8.332031 41.667969 C 8.332031 43.96875 10.199219 45.832031 12.5 45.832031 L 37.5 45.832031 C 39.800781 45.832031 41.667969 43.96875 41.667969 41.667969 L 41.667969 8.332031 C 41.667969 6.03125 39.800781 4.167969 37.5 4.167969 Z M 25 12.5 C 28.542969 12.5 31.25 15.207031 31.25 18.75 C 31.25 22.292969 28.542969 25 25 25 C 21.457031 25 18.75 22.292969 18.75 18.75 C 18.75 15.207031 21.457031 12.5 25 12.5 Z M 34.027344 37.5 L 15.972656 37.5 C 15.203125 37.5 14.582031 36.878906 14.582031 36.109375 L 14.582031 35.417969 C 14.582031 32.144531 19.816406 29.167969 25 29.167969 C 30.183594 29.167969 35.417969 32.144531 35.417969 35.417969 L 35.417969 36.109375 C 35.417969 36.878906 34.796875 37.5 34.027344 37.5 Z M 34.027344 37.5 "/>
</g>
</svg>
