<?xml version="1.0" encoding="UTF-8"?>
<svg xmlns="http://www.w3.org/2000/svg" xmlns:xlink="http://www.w3.org/1999/xlink" viewBox="0 0 50 50" width="50px" height="50px">
<g id="surface1709913">
<path style=" stroke:none;fill-rule:nonzero;fill:rgb(100%,100%,100%);fill-opacity:1;" d="M 25 3.332031 C 24.5625 3.332031 24.144531 3.503906 23.835938 3.808594 L 5.652344 18.679688 C 5.632812 18.695312 5.613281 18.710938 5.59375 18.726562 L 5.53125 18.78125 C 5.191406 19.097656 5 19.539062 5 20 C 5 20.921875 5.746094 21.667969 6.667969 21.667969 L 8.332031 21.667969 L 8.332031 40 C 8.332031 41.839844 9.824219 43.332031 11.667969 43.332031 L 38.332031 43.332031 C 40.175781 43.332031 41.667969 41.839844 41.667969 40 L 41.667969 21.667969 L 43.332031 21.667969 C 44.253906 21.667969 45 20.921875 45 20 C 45 19.535156 44.808594 19.09375 44.46875 18.78125 L 44.441406 18.761719 C 44.40625 18.726562 44.367188 18.695312 44.328125 18.664062 L 41.667969 16.488281 L 41.667969 10 C 41.667969 9.078125 40.921875 8.332031 40 8.332031 L 38.332031 8.332031 C 37.414062 8.332031 36.667969 9.078125 36.667969 10 L 36.667969 12.398438 L 26.128906 3.78125 C 25.824219 3.492188 25.417969 3.335938 25 3.332031 Z M 30 25 L 36.667969 25 L 36.667969 38.332031 L 30 38.332031 Z M 30 25 "/>
</g>
</svg>
