<?xml version="1.0" encoding="UTF-8"?>
<svg xmlns="http://www.w3.org/2000/svg" xmlns:xlink="http://www.w3.org/1999/xlink" viewBox="0 0 50 50" width="50px" height="50px">
<g id="surface1570879">
<path style=" stroke:none;fill-rule:nonzero;fill:rgb(0%,0%,0%);fill-opacity:1;" d="M 40 6.667969 L 10 6.667969 C 8.160156 6.667969 6.667969 8.160156 6.667969 10 L 6.667969 40 C 6.667969 41.839844 8.160156 43.332031 10 43.332031 L 40 43.332031 C 41.839844 43.332031 43.332031 41.839844 43.332031 40 L 43.332031 10 C 43.332031 8.160156 41.839844 6.667969 40 6.667969 Z M 37.570312 35 L 27.683594 35 L 27.683594 34.445312 L 30 32.410156 L 30 20.785156 L 24.316406 35 L 23.425781 35 L 17.082031 20.671875 L 17.082031 30.816406 L 19.984375 34.445312 L 19.984375 35 L 12.429688 35 L 12.429688 34.445312 L 15.429688 30.816406 L 15.429688 18.746094 L 12.761719 15.414062 C 12.761719 15.414062 12.761719 14.933594 12.761719 15.007812 L 20.058594 15.007812 L 25.722656 27.261719 L 30.609375 15.007812 L 37.53125 15.007812 L 37.53125 15.414062 L 35 17.542969 L 35 32.410156 L 37.570312 34.445312 Z M 37.570312 35 "/>
</g>
</svg>
